<?xml version="1.0" encoding="UTF-8"?>
<!DOCTYPE svg PUBLIC "-//W3C//DTD SVG 1.1//EN" "http://www.w3.org/Graphics/SVG/1.1/DTD/svg11.dtd">
<!-- Creator: CorelDRAW X7 -->
<svg xmlns="http://www.w3.org/2000/svg" xml:space="preserve" width="210mm" height="297mm" version="1.1" style="shape-rendering:geometricPrecision; text-rendering:geometricPrecision; image-rendering:optimizeQuality; fill-rule:evenodd; clip-rule:evenodd"
viewBox="0 0 21000 29700"
 xmlns:xlink="http://www.w3.org/1999/xlink">
 <defs>
  <style type="text/css">
   <![CDATA[
    .fil0 {fill:#1A1A1A}
    .fil1 {fill:white;fill-rule:nonzero}
   ]]>
  </style>
 </defs>
 <g id="Layer_x0020_1">
  <metadata id="CorelCorpID_0Corel-Layer"/>
  <g id="_2011192017808">
   <rect class="fil0" x="11072" y="8837" width="1270" height="1270" rx="191" ry="186"/>
   <path class="fil1" d="M11306 9672c11,14 22,23 32,29 10,6 21,9 32,9 21,0 36,-7 44,-21 9,-13 13,-39 13,-76l0 -477 105 0 0 511c0,56 -12,97 -36,123 -25,26 -63,39 -115,39 -28,0 -54,-5 -77,-16 -23,-12 -45,-29 -66,-52l68 -69z"/>
   <polygon id="1" class="fil1" points="11673,9792 11673,9136 11779,9136 11779,9407 12015,9136 12146,9136 11885,9428 12176,9792 12039,9792 11779,9457 11779,9792 "/>
  </g>
 </g>
</svg>
